<svg width="58" height="58" viewBox="0 0 58 58" fill="none" xmlns="http://www.w3.org/2000/svg">
<path d="M37.4308 51L42.1562 37.2842L35.5661 39.8327L32.4907 47.7264C32.0085 47.8284 32.1621 47.6607 32.0316 47.4617C31.7393 47.0145 30.6376 44.785 30.636 44.3542C30.6261 42.2151 31.1628 38.6012 31.4948 36.3931C32.1654 31.9192 33.2819 27.1626 38.6629 26.6381L28.9314 20.1206L19.3321 26.5378C24.7032 27.2991 25.8148 31.8206 26.5002 36.3931C26.8305 38.6012 27.3673 42.2151 27.3591 44.3542C27.3574 44.785 26.2541 47.0145 25.9634 47.4617C25.8346 47.659 25.9865 47.8284 25.5043 47.7264L22.4289 39.8327L15.8389 37.2842L20.5642 51L12.4563 46.074L6 29.9775L28.9248 7L52 29.841L45.5421 46.074L37.4341 51H37.4308ZM37.0873 34.1438C39.1336 36.181 42.5559 33.6062 41.0182 31.1514C38.9668 27.8778 34.618 31.6841 37.0873 34.1438Z" fill="white"/>
</svg>
