<svg width="58" height="58" viewBox="0 0 58 58" fill="none" xmlns="http://www.w3.org/2000/svg">
<path d="M19.037 19.5269C17.6368 17.5272 14.9459 15.838 13.5809 13.9184C13.0556 13.1783 12.3234 11.5789 11.9367 10.6982C11.8508 10.501 11.5129 10.1885 11.8644 10.0401L28.92 17.5097L46.2664 10.044C45.1436 14.227 41.6228 16.4122 38.9729 19.525H44.6867C47.8658 22.7257 52.0623 25.2995 55.2668 28.3967C55.4874 28.6096 56.0693 29.049 55.9932 29.3634L50.3145 33.1148L42.7046 27.348L38.7209 29.1466C38.0921 28.84 36.0066 24.743 35.1884 23.9169C34.9872 23.7138 34.9657 23.5752 34.5966 23.6611L32.9465 27.389L36.7818 34.966V44.8142C35.6297 44.3611 34.4346 43.4745 33.2942 43.0683C33.0462 42.9805 33.0501 42.7168 32.7669 43.1094L28.8809 56L25.2331 43.1094C24.9519 42.7168 24.9539 42.9805 24.7059 43.0683C23.5655 43.4745 22.3704 44.3611 21.2182 44.8142V34.966L25.0535 27.389L23.4034 23.6611C23.0362 23.5752 23.0148 23.7138 22.8117 23.9169C21.9935 24.743 19.9098 28.84 19.2791 29.1466L15.2955 27.348L7.68552 33.1148L2.00682 29.3634C1.93066 29.049 2.51261 28.6096 2.73327 28.3967C5.93777 25.2995 10.1343 22.7257 13.3134 19.525H19.0272L19.037 19.5269Z" fill="white"/>
<path d="M28.2112 2.07837C34.6553 1.02384 36.0184 10.9462 29.5898 11.7273C23.4073 12.4792 22.058 3.08603 28.2112 2.07837Z" fill="white"/>
</svg>
