<svg width="58" height="58" viewBox="0 0 58 58" fill="none" xmlns="http://www.w3.org/2000/svg">
<path d="M21.8554 16.9392L11.1429 6C13.8911 12.7708 12.2179 21.0473 7.97858 26.8398C6.94465 28.2516 5.475 29.9129 4 30.7887L18.2036 45.2822C18.4357 45.3229 21.3643 42.4603 21.6357 42.064C21.7643 41.8765 21.9464 41.8446 21.8554 41.5049C17.1625 39.212 14.3946 33.4018 14.7411 28.2445C15.0411 23.7843 17.7929 18.8747 21.8554 16.9392ZM53.9982 30.7905C52.5214 29.9147 51.0518 28.2534 50.0196 26.8415C46.4679 21.9885 44.7214 15.2867 45.8411 9.33854L46.7464 6.00177L36.1446 16.6101L38.1554 18.167C44.9536 24.0939 44.9571 34.3502 38.1554 40.2788L36.1446 41.8358C36.2321 42.0569 39.2821 45.0929 39.4929 45.2008C39.6643 45.2893 39.7679 45.3495 39.9357 45.2008L54 30.7887L53.9982 30.7905ZM29.2214 6.44585L28.7804 6.78023L25.3768 25.5978L16.7214 29.1132C16.625 29.5785 16.9089 29.4211 17.1714 29.5449C19.7821 30.7834 22.7554 31.5919 25.3768 32.8481L28.7786 52L29.2196 51.6656L32.6232 32.8481L41.2786 29.3326C41.375 28.8673 41.0911 29.0248 40.8286 28.9009C38.2179 27.6625 35.2446 26.8539 32.6232 25.5978L29.2214 6.44585Z" fill="white"/>
</svg>
