<svg width="58" height="58" viewBox="0 0 58 58" fill="none" xmlns="http://www.w3.org/2000/svg">
<path d="M29 5L45 12.8V27.6C45 38.4 38.68 47.22 29 52C19.32 47.22 13 38.4 13 27.6V12.8L29 5Z" fill="#A0A0A0"/>
<path d="M29 11L40 16.34V27.08C40 34.6 35.62 41.13 29 44.52C22.38 41.13 18 34.6 18 27.08V16.34L29 11Z" fill="#1E1931"/>
<path d="M29 16.5L31.72 22.02L37.82 22.91L33.41 27.21L34.45 33.28L29 30.42L23.55 33.28L24.59 27.21L20.18 22.91L26.28 22.02L29 16.5Z" fill="#A0A0A0"/>
<path d="M22.5 40.5L29 35.8L35.5 40.5L33.22 46.36L29 48.44L24.78 46.36L22.5 40.5Z" fill="#A0A0A0"/>
</svg>
