<svg width="58" height="58" viewBox="0 0 58 58" fill="none" xmlns="http://www.w3.org/2000/svg">
<path d="M38.453 25.3706C41.1408 26.3073 43.3914 28.0708 45.1322 30.2548C45.5173 27.9531 45.2585 25.8084 44.7724 23.5522L47.7869 20.4896C50.6214 24.8262 51.6663 30.4838 50.5773 35.5673C49.1568 42.2055 43.2667 46.5045 37.2662 48.9034C36.466 49.2235 35.0092 49.8762 34.2216 49.9828C33.9234 50.0236 33.8807 50.0126 33.9486 49.7114C34.0796 49.134 35.0124 46.9045 35.3375 46.4009C35.62 45.9632 39.8892 41.9921 39.6288 41.7803C32.9196 44.595 25.1008 44.6311 18.4058 41.7803C18.1391 42.0016 22.4683 46.0071 22.7682 46.5264C23.3079 47.46 23.6362 48.963 24.1034 49.9828C18.3032 48.3637 11.897 45.0155 8.93937 39.5665C5.79388 33.7692 6.69505 26.1755 10.0583 20.681L13.1881 23.6024C12.7777 25.7989 12.4542 28.019 12.9056 30.2548C14.547 27.9563 16.8149 26.5034 19.3859 25.3706C19.5548 25.5965 19.3907 30.1465 19.7331 30.9859C19.8752 31.3327 20.9358 32.3336 21.2877 32.5659C24.7252 34.833 34.0765 34.8283 37.2725 32.1124C37.5139 31.9069 38.4499 30.9624 38.4499 30.7427V25.3706H38.453Z" fill="#A0A0A0"/>
<path d="M32.708 30.5984C30.3517 31.2526 27.7901 31.1773 25.418 30.6611L22.8123 23.8126C22.6781 22.9215 25.5995 19.9624 25.4685 19.4321C19.5958 15.2524 23.9108 6.19954 30.9451 8.31606C34.9444 9.51945 36.4454 14.311 34.209 17.7345C33.6992 18.5143 33.0316 18.8783 32.5533 19.6047L35.2175 23.6275L32.7065 30.5999L32.708 30.5984Z" fill="#A0A0A0"/>
</svg>
