<svg width="58" height="58" viewBox="0 0 58 58" fill="none" xmlns="http://www.w3.org/2000/svg">
<path d="M20.3969 12.8897V19.7791H15.2381L12.6898 29.7433L18.6773 35.8217V45.402L5 31.7372L10.0776 12.8897H20.3969Z" fill="#A0A0A0"/>
<path d="M46.1942 12.8897L53 31.7354L39.3141 45.6181V35.8217L45.0754 29.9785L41.4636 19.7791H37.5945V12.8897H46.1942Z" fill="#A0A0A0"/>
<path d="M35.8749 30.1151V47.2333L29.0742 54L22.1164 47.2333V30.1151L27.1699 33.5581C27.7293 34.7081 26.9627 40.0723 27.2855 41.8396C27.4185 42.559 28.3784 43.4064 28.9171 43.8802C29.3487 43.9563 30.6177 42.3135 30.704 41.8396C31.0286 40.0723 30.262 34.7081 30.8197 33.5581L35.8749 30.1151Z" fill="#A0A0A0"/>
<path d="M39.3141 29.8989L35.9526 27.9932C30.3829 25.7434 23.3803 26.1671 18.6807 30.1151C19.0813 25.7227 21.3551 21.6623 25.6799 20.2253L26.8246 14.3215C25.9337 13.5952 24.9859 13.3081 24.3885 12.2291C23.2542 10.1781 23.9914 8.05109 25.9234 6.90285C31.6951 3.4754 38.0399 10.6554 31.2168 14.2731C31.6105 15.3193 31.809 19.7826 32.4426 20.31C32.693 20.5175 33.627 20.7544 34.0845 21.0346C37.3856 23.0648 38.9014 26.0599 39.3141 29.8989Z" fill="#A0A0A0"/>
</svg>
